<svg width="400" height="115" xmlns="http://www.w3.org/2000/svg">
 <!-- Created with Method Draw - http://github.com/duopixel/Method-Draw/ -->

 <g>
  <title>background</title>
  <rect fill="none" id="canvas_background" height="117" width="402" y="-1" x="-1"/>
  <g display="none" id="canvasGrid">
   <rect fill="url(#gridpattern)" stroke-width="0" y="0" x="0" height="100%" width="100%" id="svg_2"/>
  </g>
 </g>
 <g>
  <title>Layer 1</title>
  <text stroke="#000" transform="matrix(26.330211639404297,0,0,1,-2659.672222137451,0) " xml:space="preserve" text-anchor="start" font-family="Helvetica, Arial, sans-serif" font-size="22" id="svg_1" y="118.4375" x="105" stroke-width="0" fill="#000000"/>
  <rect transform="rotate(-180 180,45.4375) " stroke="#000" id="svg_17" height="4" width="308.000017" y="43.4375" x="25.999988" stroke-opacity="null" stroke-width="0" fill="#92a8d1"/>
  <rect transform="rotate(-180 164.50001525878906,40.93750000000001) " stroke="#000" id="svg_19" height="1" width="307.000004" y="40.4375" x="11.000018" stroke-opacity="null" stroke-width="0" fill="#92a8d1"/>
  <rect transform="rotate(-180 180,24.4375) " stroke="#000" id="svg_15" height="2" width="308.000017" y="23.4375" x="25.999988" stroke-opacity="null" stroke-width="0" fill="#92a8d1"/>
  <rect transform="rotate(-180 165.00003051757812,30.9375) " stroke="#000" id="svg_16" height="3" width="294.000011" y="29.4375" x="18.000022" stroke-opacity="null" stroke-width="0" fill="#92a8d1"/>
  <rect transform="rotate(-180 167.00001525878906,19.4375) " stroke="#000" id="svg_18" height="4" width="304.000015" y="17.4375" x="15.000018" stroke-opacity="null" stroke-width="0" fill="#92a8d1"/>
  <rect transform="rotate(-180 176.00001525878906,36.4375) " stroke="#000" id="svg_20" height="4" width="304.000015" y="34.4375" x="24.000018" stroke-opacity="null" stroke-width="0" fill="#92a8d1"/>
  <rect transform="rotate(-180 162,27.9375) " stroke="#000" id="svg_21" height="1" width="330.000026" y="27.4375" x="-3.000012" stroke-opacity="null" stroke-width="0" fill="#92a8d1"/>
  <rect transform="rotate(-180 170,8.9375) " stroke="#000" id="svg_22" height="5" width="308.000017" y="6.4375" x="15.999988" stroke-opacity="null" stroke-width="0" fill="#92a8d1"/>
  <rect transform="rotate(-180 169.5,14.4375) " stroke="#000" id="svg_23" height="2" width="329.000027" y="13.4375" x="4.999988" stroke-opacity="null" stroke-width="0" fill="#92a8d1"/>
  <g id="svg_30">
   <rect stroke="#000" id="svg_6" height="2" width="308.000017" y="76.4375" x="58.999988" stroke-opacity="null" stroke-width="0" fill="#92a8d1"/>
   <rect stroke="#000" id="svg_7" height="3" width="294.000011" y="69.4375" x="80.999991" stroke-opacity="null" stroke-width="0" fill="#92a8d1"/>
   <rect stroke="#000" id="svg_8" height="4" width="308.000017" y="54.4375" x="58.999988" stroke-opacity="null" stroke-width="0" fill="#92a8d1"/>
   <rect stroke="#000" id="svg_9" height="4" width="304.000015" y="80.4375" x="73.999988" stroke-opacity="null" stroke-width="0" fill="#92a8d1"/>
   <rect stroke="#000" id="svg_10" height="1" width="307.000004" y="60.4375" x="74.999988" stroke-opacity="null" stroke-width="0" fill="#92a8d1"/>
   <rect stroke="#000" id="svg_11" height="4" width="304.000015" y="63.4375" x="64.999988" stroke-opacity="null" stroke-width="0" fill="#92a8d1"/>
   <rect stroke="#000" id="svg_12" height="1" width="330.000026" y="73.4375" x="65.999988" stroke-opacity="null" stroke-width="0" fill="#92a8d1"/>
   <rect stroke="#000" id="svg_13" height="5" width="308.000017" y="90.4375" x="68.999988" stroke-opacity="null" stroke-width="0" fill="#92a8d1"/>
   <rect stroke="#000" id="svg_14" height="2" width="329.000027" y="86.4375" x="58.999988" stroke-opacity="null" stroke-width="0" fill="#92a8d1"/>
   <rect stroke="#000" id="svg_27" height="3" width="308.000017" y="102.4375" x="73.999988" stroke-opacity="null" stroke-width="0" fill="#92a8d1"/>
   <rect stroke="#000" id="svg_28" height="2" width="308.000017" y="97.4375" x="64.999988" stroke-opacity="null" stroke-width="0" fill="#92a8d1"/>
   <rect stroke="#000" id="svg_26" height="4" width="308.000017" y="49.4375" x="53.999988" stroke-opacity="null" stroke-width="0" fill="#92a8d1"/>
  </g>
  <g id="svg_31">
   <text stroke="#000" transform="matrix(9.141956747801911,0,0,6.256864833128358,-583.5806537993915,-390.1145644823568) " xml:space="preserve" text-anchor="start" font-family="'Courier New', Courier, monospace" font-size="10" id="svg_25" y="69.455849" x="67.263758" fill-opacity="null" stroke-opacity="null" stroke-width="0" fill="#ffffff">Peter</text>
   <text stroke="#000" transform="matrix(9.202870101262034,0,0,7.216409673502859,-1986.19950444467,-1093.6213333523854) " xml:space="preserve" text-anchor="start" font-family="'Courier New', Courier, monospace" font-size="10" id="svg_3" y="164.381121" x="225.429301" fill-opacity="null" stroke-opacity="null" stroke-width="0" fill="#ffffff">Tanzy</text>
  </g>
 </g>
</svg>